<svg width="26" height="26" viewBox="0 0 26 26" fill="none" xmlns="http://www.w3.org/2000/svg">
<path d="M13 10.6C13.5745 10.6 14.1434 10.4868 14.6742 10.267C15.205 10.0471 15.6873 9.72485 16.0936 9.31859C16.4998 8.91233 16.8221 8.43004 17.042 7.89924C17.2618 7.36844 17.375 6.79953 17.375 6.225C17.375 5.65047 17.2618 5.08156 17.042 4.55076C16.8221 4.01996 16.4998 3.53766 16.0936 3.13141C15.6873 2.72515 15.205 2.40289 14.6742 2.18303C14.1434 1.96316 13.5745 1.85 13 1.85C11.8397 1.85 10.7269 2.31093 9.90641 3.13141C9.08594 3.95188 8.625 5.06468 8.625 6.225C8.625 7.38532 9.08594 8.49812 9.90641 9.31859C10.7269 10.1391 11.8397 10.6 13 10.6ZM1.75 23.6V24.35H24.25V23.6C24.25 20.8 24.25 19.4 23.705 18.33C23.2256 17.3892 22.4608 16.6244 21.52 16.145C20.45 15.6 19.05 15.6 16.25 15.6H9.75C6.95 15.6 5.55 15.6 4.48 16.145C3.53923 16.6244 2.77436 17.3892 2.295 18.33C1.75 19.4 1.75 20.8 1.75 23.6Z" stroke="black" stroke-opacity="0.8" stroke-width="2" stroke-linecap="round" stroke-linejoin="round"/>
</svg>
