<svg width="30" height="31" viewBox="0 0 30 31" fill="none" xmlns="http://www.w3.org/2000/svg">
<path d="M27.2775 9.38875C27.1625 9.22259 27.009 9.08678 26.83 8.99295C26.6511 8.89912 26.4521 8.85007 26.25 8.85H9.16625L7.72375 5.3875C7.53517 4.93113 7.21503 4.54122 6.8041 4.26741C6.39317 3.99361 5.91004 3.8483 5.41625 3.85H2.5V6.35H5.41625L11.3462 20.5812C11.4412 20.8089 11.6015 21.0034 11.8068 21.1402C12.0121 21.277 12.2533 21.35 12.5 21.35H22.5C23.0212 21.35 23.4875 21.0262 23.6712 20.54L27.4212 10.54C27.4921 10.3508 27.5161 10.1472 27.491 9.94669C27.466 9.74618 27.3927 9.55474 27.2775 9.38875ZM21.6337 18.85H13.3337L10.2087 11.35H24.4462L21.6337 18.85Z" fill="black" fill-opacity="0.8"/>
<path d="M13.125 26.35C14.1605 26.35 15 25.5105 15 24.475C15 23.4395 14.1605 22.6 13.125 22.6C12.0895 22.6 11.25 23.4395 11.25 24.475C11.25 25.5105 12.0895 26.35 13.125 26.35Z" fill="black" fill-opacity="0.8"/>
<path d="M21.875 26.35C22.9105 26.35 23.75 25.5105 23.75 24.475C23.75 23.4395 22.9105 22.6 21.875 22.6C20.8395 22.6 20 23.4395 20 24.475C20 25.5105 20.8395 26.35 21.875 26.35Z" fill="black" fill-opacity="0.8"/>
</svg>
